<svg xmlns="http://www.w3.org/2000/svg" xmlns:xlink="http://www.w3.org/1999/xlink" version="1.1" id="v-8" width="746" height="262.970458984375" style="background: #333">  <style type="text/css"><![CDATA[     .connection-wrap {    fill: none;    stroke: black;    stroke-width: 15;    stroke-linecap: round;    stroke-linejoin: round;    opacity: 0; }  .connection {    fill: none;    stroke-linejoin: round; }  .marker-source, .marker-target {    vector-effect: non-scaling-stroke; }   .marker-vertices {    opacity: 0; } .marker-arrowheads {    opacity: 0; } .link-tools {    opacity: 0; } .link-tools .tool-options {    display: none;      } .link-tools .tool-remove circle {    fill: red; } .link-tools .tool-remove path {    fill: white; }  .marker-vertex {    fill: #1ABC9C; }  .marker-arrowhead {    fill: #1ABC9C; }  .marker-vertex-remove {    opacity: .1;    fill: white; }  .marker-vertex-group:hover .marker-vertex-remove {    opacity: 1; }  .marker-vertex-remove-area {    opacity: .1; }  .highlighted {     opacity: 0.7; }  text.highlighted {     fill: #FF0000; }  @media screen and (-webkit-min-device-pixel-ratio:0) {     .highlighted {         outline: 2px solid #FF0000;         opacity: initial;     } }  .element .fobj {     overflow: hidden; } .element .fobj body {     background-color: transparent;     margin: 0px; } .element .fobj div {     text-align: center;     vertical-align: middle;     display: table-cell;     padding: 0px 5px 0px 5px; } .element .element-tools {         display: none; }    ]]></style> <g id="v-9" class="viewport"><g id="j_41" model-id="2189246d-249a-4a98-b2f8-828cec6b028c" class="element tm ActorGroup joint-theme-default" transform="translate(21,47)"><g id="v-893"><rect class="uml-class-name-rect" id="v-895" width="140" height="20" fill="yellow" stroke="yellow" stroke-width="3" cursor="ne-resize" transform="translate(0,0)" fill-opacity="0.4"/><g class="scalable" id="v-894" transform="scale(1,1.25)"><rect class="uml-class-box-rect" id="v-896" width="140" height="80" fill="transparent" stroke="yellow" stroke-width="3" cursor="ne-resize" transform="translate(0,16)"/></g><text class="uml-class-name-text" id="v-897" y="0.8em" display="none" xml:space="preserve" text-anchor="middle" font-weight="bold" fill="white" font-size="12" font-family="Times New Roman" transform="translate(70,10)"><tspan dy="0em" x="0" id="v-901" class="v-line v-empty-line" style="opacity: 0;">-</tspan></text></g><g class="element-tools" id="v-900"><g class="element-tool-remove"><circle fill="red" r="11"/><path fill="white" transform="scale(.8) translate(-16, -16)" d="M24.778,21.419 19.276,15.917 24.777,10.415 21.949,7.585 16.447,13.087 10.945,7.585 8.117,10.415 13.618,15.917 8.116,21.419 10.946,24.248 16.447,18.746 21.948,24.248z"/><title>Remove this element from the model</title></g></g></g><g id="j_42" model-id="ac509863-d44b-4eab-8b21-f08a3e0c8989" class="element tm Actor joint-theme-default" fill="#ffffff" stroke="none" transform="translate(54,76)"><g class="rotatable" id="v-902" transform="rotate(0,30,20)"><g class="scalable" id="v-903" transform="scale(0.375,0.5)"><rect id="v-904" fill="transparent" stroke="#7cbf00" stroke-width="3" follow-scale="true" width="160" height="80" cursor="move"/><title class="tooltip"/></g><a id="v-907" xlink:href="javaScript:void(0);" xlink:show="new" cursor="pointer"><text id="v-905" y="0.8em" display="null" xml:space="preserve" font-weight="400" font-size="small" text-anchor="middle" fill="#fff" transform="translate(30,12.5)"><tspan dy="0em" x="0" id="v-910" class="v-line">input1</tspan></text></a></g><g class="element-tools" id="v-909"><g class="element-tool-remove"><circle fill="red" r="11"/><path transform="scale(.8) translate(-16, -16)" d="M24.778,21.419 19.276,15.917 24.777,10.415 21.949,7.585 16.447,13.087 10.945,7.585 8.117,10.415 13.618,15.917 8.116,21.419 10.946,24.248 16.447,18.746 21.948,24.248z"/><title>Remove this element from the model</title></g></g></g><g id="j_43" model-id="72b4e75d-c081-4c1d-b891-18d4d04919b4" class="element tm Actor joint-theme-default" fill="#ffffff" stroke="none" transform="translate(56,120)"><g class="rotatable" id="v-911" transform="rotate(0,30,20)"><g class="scalable" id="v-912" transform="scale(0.375,0.5)"><rect id="v-913" fill="transparent" stroke="#7cbf00" stroke-width="3" follow-scale="true" width="160" height="80" cursor="move"/><title class="tooltip"/></g><a id="v-916" xlink:href="javaScript:void(0);" xlink:show="new" cursor="pointer"><text id="v-914" y="0.8em" display="null" xml:space="preserve" font-weight="400" font-size="small" text-anchor="middle" fill="#fff" transform="translate(30,12.5)"><tspan dy="0em" x="0" id="v-919" class="v-line">input2</tspan></text></a></g><g class="element-tools" id="v-918"><g class="element-tool-remove"><circle fill="red" r="11"/><path transform="scale(.8) translate(-16, -16)" d="M24.778,21.419 19.276,15.917 24.777,10.415 21.949,7.585 16.447,13.087 10.945,7.585 8.117,10.415 13.618,15.917 8.116,21.419 10.946,24.248 16.447,18.746 21.948,24.248z"/><title>Remove this element from the model</title></g></g></g><g id="j_49" model-id="a9c819a4-f016-4287-8100-d216f582b6ca" class="link joint-theme-default"><path class="connection" stroke="#bf5600" d="M 86 140 86 135 S 86 130 96 130 L 350 130 S 360 130 360 127 L 360 127 S 360 124 370 124 L 438 124 S 448 124 443 124 L 438 124" id="v-985" stroke-width="3"/><path class="marker-source" fill="black" stroke="black" d="M 0 0 0 0" id="v-986" transform="translate(86,140) scale(1,1) rotate(-90)"/><path class="marker-target" fill="#bf5600" stroke="#bf5600" d="M 10 0 L 0 5 L 10 10 z" id="v-987" transform="translate(438,119) scale(1,1) rotate(0)"/><path class="connection-wrap" d="M 86 140 86 135 S 86 130 96 130 L 350 130 S 360 130 360 127 L 360 127 S 360 124 370 124 L 438 124 S 448 124 443 124 L 438 124" id="v-988"/><g class="labels" id="v-989"><g class="label" id="v-998" label-idx="0" transform="translate(265.83026123046875, 130)"><rect fill="#333" rx="3" ry="3" x="-31" y="-9.796875" width="62" height="16"/><text text-anchor="middle" font-size="14" font-weight="bold" fill="#bfac00" id="v-999" y="0.8em" display="null" xml:space="preserve" transform="translate(0,-8)"><tspan dy="0em" x="0" id="v-1000" class="v-line">summary</tspan></text></g></g><g class="marker-vertices" id="v-990"><g class="marker-vertex-group" transform="translate(361, 126)" id="v-994"><circle class="marker-vertex" idx="0" r="10"/><path class="marker-vertex-remove-area" idx="0" d="M16,5.333c-7.732,0-14,4.701-14,10.5c0,1.982,0.741,3.833,2.016,5.414L2,25.667l5.613-1.441c2.339,1.317,5.237,2.107,8.387,2.107c7.732,0,14-4.701,14-10.5C30,10.034,23.732,5.333,16,5.333z" transform="translate(5, -33)"/><path class="marker-vertex-remove" idx="0" transform="scale(.8) translate(9.5, -37)" d="M24.778,21.419 19.276,15.917 24.777,10.415 21.949,7.585 16.447,13.087 10.945,7.585 8.117,10.415 13.618,15.917 8.116,21.419 10.946,24.248 16.447,18.746 21.948,24.248z"><title>Remove vertex.</title></path></g></g><g class="marker-arrowheads" id="v-991"><g class="marker-arrowhead-group marker-arrowhead-group-source" id="v-995" transform="translate(73,140) scale(1,1) rotate(-90)"><path class="marker-arrowhead" end="source" d="M 26 0 L 0 13 L 26 26 z"/></g><g class="marker-arrowhead-group marker-arrowhead-group-target" id="v-996" transform="translate(422,111) scale(1,1) rotate(0)"><path class="marker-arrowhead" end="target" d="M 26 0 L 0 13 L 26 26 z"/></g></g><g class="link-tools" id="v-992"><g class="link-tool" id="v-993" transform="translate(118.8258056640625, 130) "><g class="tool-remove" event="remove"><circle r="11"/><path transform="scale(.8) translate(-16, -16)" d="M24.778,21.419 19.276,15.917 24.777,10.415 21.949,7.585 16.447,13.087 10.945,7.585 8.117,10.415 13.618,15.917 8.116,21.419 10.946,24.248 16.447,18.746 21.948,24.248z"/><title>Remove link.</title></g><g class="tool-options" event="link:options"><circle r="11" transform="translate(25)"/><path fill="white" transform="scale(.55) translate(29, -16)" d="M31.229,17.736c0.064-0.571,0.104-1.148,0.104-1.736s-0.04-1.166-0.104-1.737l-4.377-1.557c-0.218-0.716-0.504-1.401-0.851-2.05l1.993-4.192c-0.725-0.91-1.549-1.734-2.458-2.459l-4.193,1.994c-0.647-0.347-1.334-0.632-2.049-0.849l-1.558-4.378C17.165,0.708,16.588,0.667,16,0.667s-1.166,0.041-1.737,0.105L12.707,5.15c-0.716,0.217-1.401,0.502-2.05,0.849L6.464,4.005C5.554,4.73,4.73,5.554,4.005,6.464l1.994,4.192c-0.347,0.648-0.632,1.334-0.849,2.05l-4.378,1.557C0.708,14.834,0.667,15.412,0.667,16s0.041,1.165,0.105,1.736l4.378,1.558c0.217,0.715,0.502,1.401,0.849,2.049l-1.994,4.193c0.725,0.909,1.549,1.733,2.459,2.458l4.192-1.993c0.648,0.347,1.334,0.633,2.05,0.851l1.557,4.377c0.571,0.064,1.148,0.104,1.737,0.104c0.588,0,1.165-0.04,1.736-0.104l1.558-4.377c0.715-0.218,1.399-0.504,2.049-0.851l4.193,1.993c0.909-0.725,1.733-1.549,2.458-2.458l-1.993-4.193c0.347-0.647,0.633-1.334,0.851-2.049L31.229,17.736zM16,20.871c-2.69,0-4.872-2.182-4.872-4.871c0-2.69,2.182-4.872,4.872-4.872c2.689,0,4.871,2.182,4.871,4.872C20.871,18.689,18.689,20.871,16,20.871z"/><title>Link options.</title></g></g></g></g><g id="j_44" model-id="4697e4bd-862d-4c44-9f04-26608c86ff7e" class="element tm Actor joint-theme-default" fill="#ffffff" stroke="none" transform="translate(408,104)"><g class="rotatable" id="v-920" transform="rotate(0,40,20)"><g class="scalable" id="v-921" transform="scale(0.5,0.5)"><rect id="v-922" fill="transparent" stroke="#7cbf00" stroke-width="3" follow-scale="true" width="160" height="80" cursor="move"/><title class="tooltip"/></g><a id="v-925" xlink:href="javaScript:void(0);" xlink:show="new" cursor="pointer"><text id="v-923" y="0.8em" display="null" xml:space="preserve" font-weight="400" font-size="small" text-anchor="middle" fill="#fff" transform="translate(40,12.5)"><tspan dy="0em" x="0" id="v-928" class="v-line">summary2</tspan></text></a></g><g class="element-tools" id="v-927"><g class="element-tool-remove"><circle fill="red" r="11"/><path transform="scale(.8) translate(-16, -16)" d="M24.778,21.419 19.276,15.917 24.777,10.415 21.949,7.585 16.447,13.087 10.945,7.585 8.117,10.415 13.618,15.917 8.116,21.419 10.946,24.248 16.447,18.746 21.948,24.248z"/><title>Remove this element from the model</title></g></g></g><g id="j_48" model-id="7f257b6f-efa6-40d5-97d3-c91a5412d078" class="link joint-theme-default"><path class="connection" stroke="#bf5600" d="M 84 75 84 73 S 84 70 94 70 L 160 70 S 170 70 170 65 L 170 65 S 170 60 180 60 L 220 60 S 230 60 230 70 L 230 70 S 230 80 240 80 L 270 80 S 280 80 280 75 L 280 75 S 280 70 290 70 L 320 70 S 330 70 330 65 L 330 65 S 330 60 340 60 L 350 60 S 360 60 360 70 L 360 80 S 360 90 365 90 L 365 90 S 370 90 370 95 L 370 95 S 370 100 380 100 L 390 100 S 400 100 400 90 L 400 44 S 400 34 410 34 L 440 34 S 450 34 445 34 L 440 34" id="v-963" stroke-width="3"/><path class="marker-source" fill="black" stroke="black" d="M 0 0 0 0" id="v-964" transform="translate(84,75) scale(1,1) rotate(-90)"/><path class="marker-target" fill="#bf5600" stroke="#bf5600" d="M 10 0 L 0 5 L 10 10 z" id="v-965" transform="translate(440,29) scale(1,1) rotate(0)"/><path class="connection-wrap" d="M 84 75 84 73 S 84 70 94 70 L 160 70 S 170 70 170 65 L 170 65 S 170 60 180 60 L 220 60 S 230 60 230 70 L 230 70 S 230 80 240 80 L 270 80 S 280 80 280 75 L 280 75 S 280 70 290 70 L 320 70 S 330 70 330 65 L 330 65 S 330 60 340 60 L 350 60 S 360 60 360 70 L 360 80 S 360 90 365 90 L 365 90 S 370 90 370 95 L 370 95 S 370 100 380 100 L 390 100 S 400 100 400 90 L 400 44 S 400 34 410 34 L 440 34 S 450 34 445 34 L 440 34" id="v-966"/><g class="labels" id="v-967"><g class="label" id="v-982" label-idx="0" transform="translate(301.8057556152344, 70)"><rect fill="#333" rx="3" ry="3" x="-31" y="-9.796875" width="62" height="16"/><text text-anchor="middle" font-size="14" font-weight="bold" fill="#bfac00" id="v-983" y="0.8em" display="null" xml:space="preserve" transform="translate(0,-8)"><tspan dy="0em" x="0" id="v-984" class="v-line">summary</tspan></text></g></g><g class="marker-vertices" id="v-968"><g class="marker-vertex-group" transform="translate(170, 72)" id="v-972"><circle class="marker-vertex" idx="0" r="10"/><path class="marker-vertex-remove-area" idx="0" d="M16,5.333c-7.732,0-14,4.701-14,10.5c0,1.982,0.741,3.833,2.016,5.414L2,25.667l5.613-1.441c2.339,1.317,5.237,2.107,8.387,2.107c7.732,0,14-4.701,14-10.5C30,10.034,23.732,5.333,16,5.333z" transform="translate(5, -33)"/><path class="marker-vertex-remove" idx="0" transform="scale(.8) translate(9.5, -37)" d="M24.778,21.419 19.276,15.917 24.777,10.415 21.949,7.585 16.447,13.087 10.945,7.585 8.117,10.415 13.618,15.917 8.116,21.419 10.946,24.248 16.447,18.746 21.948,24.248z"><title>Remove vertex.</title></path></g><g class="marker-vertex-group" transform="translate(230, 57)" id="v-973"><circle class="marker-vertex" idx="1" r="10"/><path class="marker-vertex-remove-area" idx="1" d="M16,5.333c-7.732,0-14,4.701-14,10.5c0,1.982,0.741,3.833,2.016,5.414L2,25.667l5.613-1.441c2.339,1.317,5.237,2.107,8.387,2.107c7.732,0,14-4.701,14-10.5C30,10.034,23.732,5.333,16,5.333z" transform="translate(5, -33)"/><path class="marker-vertex-remove" idx="1" transform="scale(.8) translate(9.5, -37)" d="M24.778,21.419 19.276,15.917 24.777,10.415 21.949,7.585 16.447,13.087 10.945,7.585 8.117,10.415 13.618,15.917 8.116,21.419 10.946,24.248 16.447,18.746 21.948,24.248z"><title>Remove vertex.</title></path></g><g class="marker-vertex-group" transform="translate(277, 75)" id="v-974"><circle class="marker-vertex" idx="2" r="10"/><path class="marker-vertex-remove-area" idx="2" d="M16,5.333c-7.732,0-14,4.701-14,10.5c0,1.982,0.741,3.833,2.016,5.414L2,25.667l5.613-1.441c2.339,1.317,5.237,2.107,8.387,2.107c7.732,0,14-4.701,14-10.5C30,10.034,23.732,5.333,16,5.333z" transform="translate(5, -33)"/><path class="marker-vertex-remove" idx="2" transform="scale(.8) translate(9.5, -37)" d="M24.778,21.419 19.276,15.917 24.777,10.415 21.949,7.585 16.447,13.087 10.945,7.585 8.117,10.415 13.618,15.917 8.116,21.419 10.946,24.248 16.447,18.746 21.948,24.248z"><title>Remove vertex.</title></path></g><g class="marker-vertex-group" transform="translate(330, 73)" id="v-975"><circle class="marker-vertex" idx="3" r="10"/><path class="marker-vertex-remove-area" idx="3" d="M16,5.333c-7.732,0-14,4.701-14,10.5c0,1.982,0.741,3.833,2.016,5.414L2,25.667l5.613-1.441c2.339,1.317,5.237,2.107,8.387,2.107c7.732,0,14-4.701,14-10.5C30,10.034,23.732,5.333,16,5.333z" transform="translate(5, -33)"/><path class="marker-vertex-remove" idx="3" transform="scale(.8) translate(9.5, -37)" d="M24.778,21.419 19.276,15.917 24.777,10.415 21.949,7.585 16.447,13.087 10.945,7.585 8.117,10.415 13.618,15.917 8.116,21.419 10.946,24.248 16.447,18.746 21.948,24.248z"><title>Remove vertex.</title></path></g><g class="marker-vertex-group" transform="translate(363, 63)" id="v-976"><circle class="marker-vertex" idx="4" r="10"/><path class="marker-vertex-remove-area" idx="4" d="M16,5.333c-7.732,0-14,4.701-14,10.5c0,1.982,0.741,3.833,2.016,5.414L2,25.667l5.613-1.441c2.339,1.317,5.237,2.107,8.387,2.107c7.732,0,14-4.701,14-10.5C30,10.034,23.732,5.333,16,5.333z" transform="translate(5, -33)"/><path class="marker-vertex-remove" idx="4" transform="scale(.8) translate(9.5, -37)" d="M24.778,21.419 19.276,15.917 24.777,10.415 21.949,7.585 16.447,13.087 10.945,7.585 8.117,10.415 13.618,15.917 8.116,21.419 10.946,24.248 16.447,18.746 21.948,24.248z"><title>Remove vertex.</title></path></g><g class="marker-vertex-group" transform="translate(365, 86)" id="v-977"><circle class="marker-vertex" idx="5" r="10"/><path class="marker-vertex-remove-area" idx="5" d="M16,5.333c-7.732,0-14,4.701-14,10.5c0,1.982,0.741,3.833,2.016,5.414L2,25.667l5.613-1.441c2.339,1.317,5.237,2.107,8.387,2.107c7.732,0,14-4.701,14-10.5C30,10.034,23.732,5.333,16,5.333z" transform="translate(5, -33)"/><path class="marker-vertex-remove" idx="5" transform="scale(.8) translate(9.5, -37)" d="M24.778,21.419 19.276,15.917 24.777,10.415 21.949,7.585 16.447,13.087 10.945,7.585 8.117,10.415 13.618,15.917 8.116,21.419 10.946,24.248 16.447,18.746 21.948,24.248z"><title>Remove vertex.</title></path></g><g class="marker-vertex-group" transform="translate(404, 96)" id="v-978"><circle class="marker-vertex" idx="6" r="10"/><path class="marker-vertex-remove-area" idx="6" d="M16,5.333c-7.732,0-14,4.701-14,10.5c0,1.982,0.741,3.833,2.016,5.414L2,25.667l5.613-1.441c2.339,1.317,5.237,2.107,8.387,2.107c7.732,0,14-4.701,14-10.5C30,10.034,23.732,5.333,16,5.333z" transform="translate(5, -33)"/><path class="marker-vertex-remove" idx="6" transform="scale(.8) translate(9.5, -37)" d="M24.778,21.419 19.276,15.917 24.777,10.415 21.949,7.585 16.447,13.087 10.945,7.585 8.117,10.415 13.618,15.917 8.116,21.419 10.946,24.248 16.447,18.746 21.948,24.248z"><title>Remove vertex.</title></path></g></g><g class="marker-arrowheads" id="v-969"><g class="marker-arrowhead-group marker-arrowhead-group-source" id="v-979" transform="translate(71,75) scale(1,1) rotate(-90)"><path class="marker-arrowhead" end="source" d="M 26 0 L 0 13 L 26 26 z"/></g><g class="marker-arrowhead-group marker-arrowhead-group-target" id="v-980" transform="translate(424,21) scale(1,1) rotate(0)"><path class="marker-arrowhead" end="target" d="M 26 0 L 0 13 L 26 26 z"/></g></g><g class="link-tools" id="v-970"><g class="link-tool" id="v-971" transform="translate(121.01541137695312, 70) "><g class="tool-remove" event="remove"><circle r="11"/><path transform="scale(.8) translate(-16, -16)" d="M24.778,21.419 19.276,15.917 24.777,10.415 21.949,7.585 16.447,13.087 10.945,7.585 8.117,10.415 13.618,15.917 8.116,21.419 10.946,24.248 16.447,18.746 21.948,24.248z"/><title>Remove link.</title></g><g class="tool-options" event="link:options"><circle r="11" transform="translate(25)"/><path fill="white" transform="scale(.55) translate(29, -16)" d="M31.229,17.736c0.064-0.571,0.104-1.148,0.104-1.736s-0.04-1.166-0.104-1.737l-4.377-1.557c-0.218-0.716-0.504-1.401-0.851-2.05l1.993-4.192c-0.725-0.91-1.549-1.734-2.458-2.459l-4.193,1.994c-0.647-0.347-1.334-0.632-2.049-0.849l-1.558-4.378C17.165,0.708,16.588,0.667,16,0.667s-1.166,0.041-1.737,0.105L12.707,5.15c-0.716,0.217-1.401,0.502-2.05,0.849L6.464,4.005C5.554,4.73,4.73,5.554,4.005,6.464l1.994,4.192c-0.347,0.648-0.632,1.334-0.849,2.05l-4.378,1.557C0.708,14.834,0.667,15.412,0.667,16s0.041,1.165,0.105,1.736l4.378,1.558c0.217,0.715,0.502,1.401,0.849,2.049l-1.994,4.193c0.725,0.909,1.549,1.733,2.459,2.458l4.192-1.993c0.648,0.347,1.334,0.633,2.05,0.851l1.557,4.377c0.571,0.064,1.148,0.104,1.737,0.104c0.588,0,1.165-0.04,1.736-0.104l1.558-4.377c0.715-0.218,1.399-0.504,2.049-0.851l4.193,1.993c0.909-0.725,1.733-1.549,2.458-2.458l-1.993-4.193c0.347-0.647,0.633-1.334,0.851-2.049L31.229,17.736zM16,20.871c-2.69,0-4.872-2.182-4.872-4.871c0-2.69,2.182-4.872,4.872-4.872c2.689,0,4.871,2.182,4.871,4.872C20.871,18.689,18.689,20.871,16,20.871z"/><title>Link options.</title></g></g></g></g><g id="j_45" model-id="0367bee5-627b-446d-9517-7d0d78a7cfd0" class="element tm Actor joint-theme-default" fill="#ffffff" stroke="none" transform="translate(625,139)"><g class="rotatable" id="v-929" transform="rotate(0,35,20)"><g class="scalable" id="v-930" transform="scale(0.4375,0.5)"><rect id="v-931" fill="transparent" stroke="#6495ED" stroke-width="3" follow-scale="true" width="160" height="80" cursor="move"/><title class="tooltip"/></g><a id="v-934" xlink:href="javaScript:void(0);" xlink:show="new" cursor="pointer"><text id="v-932" y="0.8em" display="null" xml:space="preserve" font-weight="400" font-size="small" text-anchor="middle" fill="#fff" transform="translate(35,12.5)"><tspan dy="0em" x="0" id="v-937" class="v-line">output1</tspan></text></a></g><g class="element-tools" id="v-936"><g class="element-tool-remove"><circle fill="red" r="11"/><path transform="scale(.8) translate(-16, -16)" d="M24.778,21.419 19.276,15.917 24.777,10.415 21.949,7.585 16.447,13.087 10.945,7.585 8.117,10.415 13.618,15.917 8.116,21.419 10.946,24.248 16.447,18.746 21.948,24.248z"/><title>Remove this element from the model</title></g></g></g><g id="j_46" model-id="fa6b37d5-573f-4a2b-be55-5036da5047c5" class="element tm Actor joint-theme-default" fill="#ffffff" stroke="none" transform="translate(410,14)"><g class="rotatable" id="v-938" transform="rotate(0,40,20)"><g class="scalable" id="v-939" transform="scale(0.5,0.5)"><rect id="v-940" fill="transparent" stroke="#7cbf00" stroke-width="3" follow-scale="true" width="160" height="80" cursor="move"/><title class="tooltip"/></g><a id="v-943" xlink:href="javaScript:void(0);" xlink:show="new" cursor="pointer"><text id="v-941" y="0.8em" display="null" xml:space="preserve" font-weight="400" font-size="small" text-anchor="middle" fill="#fff" transform="translate(40,12.5)"><tspan dy="0em" x="0" id="v-946" class="v-line">summary1</tspan></text></a></g><g class="element-tools" id="v-945"><g class="element-tool-remove"><circle fill="red" r="11"/><path transform="scale(.8) translate(-16, -16)" d="M24.778,21.419 19.276,15.917 24.777,10.415 21.949,7.585 16.447,13.087 10.945,7.585 8.117,10.415 13.618,15.917 8.116,21.419 10.946,24.248 16.447,18.746 21.948,24.248z"/><title>Remove this element from the model</title></g></g></g><g id="j_47" model-id="5144d225-b2f1-44a3-82d5-e09abb9f693e" class="link joint-theme-default"><path class="connection" stroke="#bf5600" d="M 91 169 91 200 S 91 210 101 210 L 370 210 S 380 210 380 200 L 380 169 S 380 159 390 159 L 650 159 S 660 159 655 159 L 650 159" id="v-947" stroke-width="3"/><path class="marker-source" fill="black" stroke="black" d="M 0 0 0 0" id="v-948" transform="translate(91,169) scale(1,1) rotate(-270)"/><path class="marker-target" fill="#bf5600" stroke="#bf5600" d="M 10 0 L 0 5 L 10 10 z" id="v-949" transform="translate(650,154) scale(1,1) rotate(0)"/><path class="connection-wrap" d="M 91 169 91 200 S 91 210 101 210 L 370 210 S 380 210 380 200 L 380 169 S 380 159 390 159 L 650 159 S 660 159 655 159 L 650 159" id="v-950"/><g class="labels" id="v-951"><g class="label" id="v-960" label-idx="0" transform="translate(378.4624938964844, 205.7433624267578)"><rect fill="#333" rx="3" ry="3" x="-36.5" y="-9.796875" width="73" height="16"/><text text-anchor="middle" font-size="14" font-weight="bold" fill="#bfac00" id="v-961" y="0.8em" display="null" xml:space="preserve" transform="translate(0,-8)"><tspan dy="0em" x="0" id="v-962" class="v-line">regression</tspan></text></g></g><g class="marker-vertices" id="v-952"><g class="marker-vertex-group" transform="translate(383, 205)" id="v-956"><circle class="marker-vertex" idx="0" r="10"/><path class="marker-vertex-remove-area" idx="0" d="M16,5.333c-7.732,0-14,4.701-14,10.5c0,1.982,0.741,3.833,2.016,5.414L2,25.667l5.613-1.441c2.339,1.317,5.237,2.107,8.387,2.107c7.732,0,14-4.701,14-10.5C30,10.034,23.732,5.333,16,5.333z" transform="translate(5, -33)"/><path class="marker-vertex-remove" idx="0" transform="scale(.8) translate(9.5, -37)" d="M24.778,21.419 19.276,15.917 24.777,10.415 21.949,7.585 16.447,13.087 10.945,7.585 8.117,10.415 13.618,15.917 8.116,21.419 10.946,24.248 16.447,18.746 21.948,24.248z"><title>Remove vertex.</title></path></g></g><g class="marker-arrowheads" id="v-953"><g class="marker-arrowhead-group marker-arrowhead-group-source" id="v-957" transform="translate(104,169) scale(1,1) rotate(-270)"><path class="marker-arrowhead" end="source" d="M 26 0 L 0 13 L 26 26 z"/></g><g class="marker-arrowhead-group marker-arrowhead-group-target" id="v-958" transform="translate(634,146) scale(1,1) rotate(0)"><path class="marker-arrowhead" end="target" d="M 26 0 L 0 13 L 26 26 z"/></g></g><g class="link-tools" id="v-954"><g class="link-tool" id="v-955" transform="translate(94.58618927001953, 207.9705047607422) "><g class="tool-remove" event="remove"><circle r="11"/><path transform="scale(.8) translate(-16, -16)" d="M24.778,21.419 19.276,15.917 24.777,10.415 21.949,7.585 16.447,13.087 10.945,7.585 8.117,10.415 13.618,15.917 8.116,21.419 10.946,24.248 16.447,18.746 21.948,24.248z"/><title>Remove link.</title></g><g class="tool-options" event="link:options"><circle r="11" transform="translate(25)"/><path fill="white" transform="scale(.55) translate(29, -16)" d="M31.229,17.736c0.064-0.571,0.104-1.148,0.104-1.736s-0.04-1.166-0.104-1.737l-4.377-1.557c-0.218-0.716-0.504-1.401-0.851-2.05l1.993-4.192c-0.725-0.91-1.549-1.734-2.458-2.459l-4.193,1.994c-0.647-0.347-1.334-0.632-2.049-0.849l-1.558-4.378C17.165,0.708,16.588,0.667,16,0.667s-1.166,0.041-1.737,0.105L12.707,5.15c-0.716,0.217-1.401,0.502-2.05,0.849L6.464,4.005C5.554,4.73,4.73,5.554,4.005,6.464l1.994,4.192c-0.347,0.648-0.632,1.334-0.849,2.05l-4.378,1.557C0.708,14.834,0.667,15.412,0.667,16s0.041,1.165,0.105,1.736l4.378,1.558c0.217,0.715,0.502,1.401,0.849,2.049l-1.994,4.193c0.725,0.909,1.549,1.733,2.459,2.458l4.192-1.993c0.648,0.347,1.334,0.633,2.05,0.851l1.557,4.377c0.571,0.064,1.148,0.104,1.737,0.104c0.588,0,1.165-0.04,1.736-0.104l1.558-4.377c0.715-0.218,1.399-0.504,2.049-0.851l4.193,1.993c0.909-0.725,1.733-1.549,2.458-2.458l-1.993-4.193c0.347-0.647,0.633-1.334,0.851-2.049L31.229,17.736zM16,20.871c-2.69,0-4.872-2.182-4.872-4.871c0-2.69,2.182-4.872,4.872-4.872c2.689,0,4.871,2.182,4.871,4.872C20.871,18.689,18.689,20.871,16,20.871z"/><title>Link options.</title></g></g></g></g></g><defs id="v-10"/></svg>